<svg width="29" height="35" viewBox="0 0 29 35" fill="none" xmlns="http://www.w3.org/2000/svg">
<path d="M24.0082 18.1592C24.025 16.8573 24.3708 15.5808 25.0135 14.4484C25.6562 13.316 26.5749 12.3646 27.6841 11.6827C26.9795 10.6763 26.0499 9.84815 24.9692 9.2639C23.8885 8.67966 22.6864 8.35546 21.4585 8.31704C18.8392 8.04209 16.2998 9.88442 14.965 9.88442C13.6044 9.88442 11.5493 8.34434 9.33632 8.38986C7.9049 8.43611 6.50986 8.85236 5.28713 9.59806C4.0644 10.3438 3.05569 11.3935 2.35927 12.6449C-0.657396 17.8679 1.59277 25.544 4.48253 29.7659C5.92835 31.8333 7.61809 34.1425 9.8291 34.0606C11.9927 33.9709 12.8008 32.681 15.4124 32.681C17.9998 32.681 18.7579 34.0606 21.0138 34.0086C23.3355 33.9709 24.7982 31.932 26.1933 29.8451C27.2321 28.3721 28.0315 26.744 28.5618 25.0213C27.213 24.4508 26.062 23.4959 25.2522 22.2756C24.4424 21.0554 24.0098 19.6237 24.0082 18.1592Z" fill="black"/>
<path d="M19.7477 5.54054C21.0136 4.02093 21.6372 2.06772 21.4862 0.0957031C19.5522 0.298826 17.7658 1.22312 16.4829 2.68443C15.8556 3.39832 15.3752 4.22884 15.0691 5.12851C14.7629 6.02818 14.6371 6.97937 14.6989 7.92768C15.6662 7.93764 16.6231 7.72798 17.4977 7.31448C18.3722 6.90099 19.1415 6.29445 19.7477 5.54054V5.54054Z" fill="black"/>
</svg>
