<svg width="28" height="34" viewBox="0 0 28 34" fill="none" xmlns="http://www.w3.org/2000/svg">
<path d="M22.6647 17.951C22.6809 16.699 23.0134 15.4714 23.6314 14.3825C24.2495 13.2936 25.1329 12.3787 26.1996 11.7229C25.522 10.7552 24.628 9.95874 23.5888 9.39691C22.5496 8.83508 21.3936 8.52332 20.2128 8.48637C17.694 8.22198 15.252 9.99362 13.9685 9.99362C12.6601 9.99362 10.6838 8.51262 8.55572 8.55641C7.17921 8.60088 5.83769 9.00116 4.66187 9.71825C3.48605 10.4353 2.51604 11.4448 1.84634 12.6482C-1.05466 17.6708 1.10922 25.0524 3.88814 29.1123C5.27849 31.1004 6.90341 33.321 9.02958 33.2423C11.1102 33.156 11.8872 31.9156 14.3987 31.9156C16.8868 31.9156 17.6159 33.2423 19.7852 33.1922C22.0178 33.156 23.4244 31.1954 24.766 29.1885C25.7649 27.772 26.5336 26.2064 27.0436 24.5497C25.7465 24.0011 24.6396 23.0829 23.861 21.9094C23.0823 20.736 22.6662 19.3593 22.6647 17.951V17.951Z" fill="white"/>
<path d="M18.5671 5.81625C19.7844 4.35494 20.3841 2.47667 20.2389 0.580322C18.3791 0.775653 16.6612 1.66449 15.4275 3.06974C14.8243 3.75624 14.3623 4.55489 14.0679 5.42004C13.7736 6.2852 13.6526 7.19989 13.7119 8.11182C14.6422 8.1214 15.5624 7.91978 16.4034 7.52215C17.2444 7.12452 17.9842 6.54124 18.5671 5.81625Z" fill="white"/>
</svg>
