<svg width="38" height="39" viewBox="0 0 38 39" fill="none" xmlns="http://www.w3.org/2000/svg">
<path opacity="0.4" d="M25.4529 3.66675H30.814C33.0343 3.66675 34.8334 5.48101 34.8334 7.72002V13.1264C34.8334 15.3654 33.0343 17.1797 30.814 17.1797H25.4529C23.2327 17.1797 21.4336 15.3654 21.4336 13.1264V7.72002C21.4336 5.48101 23.2327 3.66675 25.4529 3.66675Z" fill="url(#paint0_linear_258_1138)"/>
<path d="M12.5465 21.8205C14.7667 21.8205 16.5658 23.6347 16.5658 25.8738V31.2801C16.5658 33.5176 14.7667 35.3334 12.5465 35.3334H7.18535C4.96509 35.3334 3.16602 33.5176 3.16602 31.2801V25.8738C3.16602 23.6347 4.96509 21.8205 7.18535 21.8205H12.5465ZM30.8134 21.8205C33.0336 21.8205 34.8327 23.6347 34.8327 25.8738V31.2801C34.8327 33.5176 33.0336 35.3334 30.8134 35.3334H25.4522C23.232 35.3334 21.4329 33.5176 21.4329 31.2801V25.8738C21.4329 23.6347 23.232 21.8205 25.4522 21.8205H30.8134ZM12.5465 3.66675C14.7667 3.66675 16.5658 5.48101 16.5658 7.72002V13.1264C16.5658 15.3654 14.7667 17.1797 12.5465 17.1797H7.18535C4.96509 17.1797 3.16602 15.3654 3.16602 13.1264V7.72002C3.16602 5.48101 4.96509 3.66675 7.18535 3.66675H12.5465Z" fill="url(#paint1_linear_258_1138)"/>
<defs>
<linearGradient id="paint0_linear_258_1138" x1="24.7963" y1="3.66675" x2="34.2018" y2="4.79617" gradientUnits="userSpaceOnUse">
<stop stop-color="#0CC312"/>
<stop offset="1" stop-color="#E2D61E"/>
</linearGradient>
<linearGradient id="paint1_linear_258_1138" x1="11.1128" y1="3.66675" x2="33.3348" y2="6.35773" gradientUnits="userSpaceOnUse">
<stop stop-color="#0CC312"/>
<stop offset="1" stop-color="#E2D61E"/>
</linearGradient>
</defs>
</svg>
